<svg width="118" height="103" viewBox="0 0 118 103" fill="none" xmlns="http://www.w3.org/2000/svg">
<g id="56">
<path id="Vector" d="M65.1482 54.9137L99.9408 52.1125L65.0196 49.2995L65.1448 49.3083L79.4652 34.3265L62.2178 46.7658L58.9929 16.5434L55.7682 46.7658L38.5207 34.3265L52.8411 49.3083L52.9664 49.2995L18.045 52.1125L52.8378 54.9137L38.5173 69.8955L55.7648 57.4562L58.9896 87.6786L62.2144 57.4562L79.4618 69.8955L65.1482 54.9137ZM60.7018 56.254L58.9929 72.2705L57.2842 56.254C57.1353 54.8461 55.846 53.7262 54.2252 53.5969L35.7866 52.1125L54.2252 50.6281C55.846 50.4988 57.1353 49.3789 57.2842 47.9709L58.9929 31.9544L60.7018 47.9709C60.8507 49.3789 62.14 50.4988 63.7608 50.6281L82.1994 52.1125L63.7608 53.5969C62.14 53.7262 60.8541 54.8461 60.7018 56.254Z" fill="#FFE064"/>
</g>
</svg>
