<svg id="visual" viewBox="0 0 1920 65" width="1920" height="65" xmlns="http://www.w3.org/2000/svg" xmlns:xlink="http://www.w3.org/1999/xlink" version="1.1"><path d="M0 15L64 14.8C128 14.7 256 14.3 384 15.8C512 17.3 640 20.7 768 22C896 23.3 1024 22.7 1152 21.8C1280 21 1408 20 1536 21C1664 22 1792 25 1856 26.5L1920 28L1920 0L1856 0C1792 0 1664 0 1536 0C1408 0 1280 0 1152 0C1024 0 896 0 768 0C640 0 512 0 384 0C256 0 128 0 64 0L0 0Z" fill="#fb959c"></path><path d="M0 48L64 47.3C128 46.7 256 45.3 384 44.8C512 44.3 640 44.7 768 46.7C896 48.7 1024 52.3 1152 52.2C1280 52 1408 48 1536 46.5C1664 45 1792 46 1856 46.5L1920 47L1920 26L1856 24.5C1792 23 1664 20 1536 19C1408 18 1280 19 1152 19.8C1024 20.7 896 21.3 768 20C640 18.7 512 15.3 384 13.8C256 12.3 128 12.7 64 12.8L0 13Z" fill="#f0616e"></path><path d="M0 66L64 66C128 66 256 66 384 66C512 66 640 66 768 66C896 66 1024 66 1152 66C1280 66 1408 66 1536 66C1664 66 1792 66 1856 66L1920 66L1920 45L1856 44.5C1792 44 1664 43 1536 44.5C1408 46 1280 50 1152 50.2C1024 50.3 896 46.7 768 44.7C640 42.7 512 42.3 384 42.8C256 43.3 128 44.7 64 45.3L0 46Z" fill="#b6424b"></path></svg>