<svg id="visual" viewBox="0 0 1920 1080" width="1920" height="1080" xmlns="http://www.w3.org/2000/svg" xmlns:xlink="http://www.w3.org/1999/xlink" version="1.1"><path d="M0 379L64 370C128 361 256 343 384 346.7C512 350.3 640 375.7 768 393.7C896 411.7 1024 422.3 1152 431.3C1280 440.3 1408 447.7 1536 467.5C1664 487.3 1792 519.7 1856 535.8L1920 552L1920 0L1856 0C1792 0 1664 0 1536 0C1408 0 1280 0 1152 0C1024 0 896 0 768 0C640 0 512 0 384 0C256 0 128 0 64 0L0 0Z" fill="#e4c2c2"></path><path d="M0 735L64 735C128 735 256 735 384 738.7C512 742.3 640 749.7 768 748C896 746.3 1024 735.7 1152 732C1280 728.3 1408 731.7 1536 753.2C1664 774.7 1792 814.3 1856 834.2L1920 854L1920 550L1856 533.8C1792 517.7 1664 485.3 1536 465.5C1408 445.7 1280 438.3 1152 429.3C1024 420.3 896 409.7 768 391.7C640 373.7 512 348.3 384 344.7C256 341 128 359 64 368L0 377Z" fill="#d7a7a7"></path><path d="M0 1081L64 1081C128 1081 256 1081 384 1081C512 1081 640 1081 768 1081C896 1081 1024 1081 1152 1081C1280 1081 1408 1081 1536 1081C1664 1081 1792 1081 1856 1081L1920 1081L1920 852L1856 832.2C1792 812.3 1664 772.7 1536 751.2C1408 729.7 1280 726.3 1152 730C1024 733.7 896 744.3 768 746C640 747.7 512 740.3 384 736.7C256 733 128 733 64 733L0 733Z" fill="#bc8282"></path></svg>